<svg width="13" height="15" viewBox="0 0 13 15" fill="none" xmlns="http://www.w3.org/2000/svg">
<path opacity="0.15" d="M6.17337 0C7.81066 0 9.38088 0.650407 10.5386 1.80814C11.6963 2.96587 12.3467 4.53609 12.3467 6.17337C12.3467 9.12322 10.3558 11.8385 6.44912 14.3243C6.36667 14.3766 6.27103 14.4044 6.17337 14.4044C6.07572 14.4044 5.98007 14.3766 5.89763 14.3243C1.99091 11.8385 0 9.12322 0 6.17337C0 4.53609 0.650407 2.96587 1.80814 1.80814C2.96587 0.650407 4.53609 0 6.17337 0ZM6.17337 4.11558C5.62761 4.11558 5.10421 4.33239 4.7183 4.7183C4.33239 5.10421 4.11558 5.62761 4.11558 6.17337C4.11558 6.71913 4.33239 7.24254 4.7183 7.62845C5.10421 8.01436 5.62761 8.23117 6.17337 8.23117C6.71913 8.23117 7.24254 8.01436 7.62845 7.62845C8.01436 7.24254 8.23117 6.71913 8.23117 6.17337C8.23117 5.62761 8.01436 5.10421 7.62845 4.7183C7.24254 4.33239 6.71913 4.11558 6.17337 4.11558Z" fill="#060D37"/>
</svg>
