<svg width="18" height="18" viewBox="0 0 18 18" fill="none" xmlns="http://www.w3.org/2000/svg">
<path d="M9.00088 0.662109C6.73794 0.662109 6.45338 0.672533 5.56426 0.712142C4.67514 0.753836 4.06954 0.89351 3.53898 1.09989C2.98247 1.30922 2.47839 1.63756 2.06198 2.06198C1.63782 2.4786 1.30952 2.98262 1.09989 3.53898C0.89351 4.0685 0.752793 4.67514 0.712142 5.56113C0.672533 6.45234 0.662109 6.73586 0.662109 9.00192C0.662109 11.2659 0.672533 11.5494 0.712142 12.4385C0.753836 13.3266 0.89351 13.9322 1.09989 14.4628C1.31358 15.011 1.59814 15.4759 2.06198 15.9398C2.52478 16.4036 2.98967 16.6892 3.53794 16.9019C4.06954 17.1082 4.6741 17.249 5.56218 17.2896C6.45234 17.3292 6.73586 17.3396 9.00088 17.3396C11.2659 17.3396 11.5484 17.3292 12.4385 17.2896C13.3256 17.2479 13.9333 17.1082 14.4638 16.9019C15.02 16.6924 15.5237 16.3641 15.9398 15.9398C16.4036 15.4759 16.6882 15.011 16.9019 14.4628C17.1072 13.9322 17.2479 13.3266 17.2896 12.4385C17.3292 11.5494 17.3396 11.2659 17.3396 9.00088C17.3396 6.73586 17.3292 6.45234 17.2896 5.56218C17.2479 4.67514 17.1072 4.0685 16.9019 3.53898C16.6923 2.98261 16.364 2.47858 15.9398 2.06198C15.5235 1.63741 15.0194 1.30904 14.4628 1.09989C13.9312 0.89351 13.3245 0.752793 12.4375 0.712142C11.5473 0.672533 11.2649 0.662109 8.99879 0.662109H9.00192H9.00088ZM8.25351 2.16517H9.00192C11.2284 2.16517 11.4921 2.17247 12.3708 2.21312C13.1838 2.2496 13.6258 2.38615 13.9197 2.49977C14.3085 2.65091 14.5868 2.83227 14.8787 3.12413C15.1705 3.41599 15.3508 3.69325 15.502 4.08309C15.6166 4.37599 15.7522 4.81794 15.7886 5.63097C15.8293 6.50967 15.8376 6.77338 15.8376 8.99879C15.8376 11.2242 15.8293 11.489 15.7886 12.3677C15.7522 13.1807 15.6156 13.6216 15.502 13.9155C15.3683 14.2776 15.1549 14.605 14.8776 14.8735C14.5858 15.1653 14.3085 15.3456 13.9187 15.4968C13.6268 15.6114 13.1849 15.7469 12.3708 15.7845C11.4921 15.8241 11.2284 15.8335 9.00192 15.8335C6.77547 15.8335 6.51071 15.8241 5.63201 15.7845C4.81898 15.7469 4.37807 15.6114 4.08413 15.4968C3.72191 15.3633 3.39423 15.1503 3.12517 14.8735C2.84765 14.6046 2.63394 14.2769 2.49977 13.9145C2.38615 13.6216 2.2496 13.1796 2.21312 12.3666C2.17351 11.4879 2.16517 11.2242 2.16517 8.99671C2.16517 6.77026 2.17351 6.50758 2.21312 5.62889C2.25064 4.81586 2.38615 4.3739 2.50081 4.07996C2.65195 3.69117 2.83332 3.41286 3.12517 3.121C3.41703 2.82915 3.69429 2.64882 4.08413 2.49768C4.37807 2.38302 4.81898 2.24752 5.63201 2.20999C6.40127 2.17455 6.69938 2.16413 8.25351 2.16309V2.16517V2.16517ZM13.4527 3.54941C13.3213 3.54941 13.1912 3.57529 13.0698 3.62558C12.9484 3.67587 12.8381 3.74957 12.7452 3.84249C12.6522 3.93541 12.5785 4.04572 12.5283 4.16713C12.478 4.28853 12.4521 4.41865 12.4521 4.55006C12.4521 4.68147 12.478 4.81159 12.5283 4.93299C12.5785 5.0544 12.6522 5.16471 12.7452 5.25763C12.8381 5.35055 12.9484 5.42425 13.0698 5.47454C13.1912 5.52483 13.3213 5.55071 13.4527 5.55071C13.7181 5.55071 13.9726 5.44529 14.1603 5.25763C14.348 5.06997 14.4534 4.81545 14.4534 4.55006C14.4534 4.28467 14.348 4.03015 14.1603 3.84249C13.9726 3.65483 13.7181 3.54941 13.4527 3.54941V3.54941ZM9.00192 4.71892C8.43391 4.71006 7.86982 4.81428 7.34248 5.02552C6.81514 5.23675 6.33509 5.55079 5.93028 5.94933C5.52547 6.34787 5.20399 6.82296 4.98455 7.34694C4.76511 7.87092 4.65211 8.43332 4.65211 9.0014C4.65211 9.56947 4.76511 10.1319 4.98455 10.6559C5.20399 11.1798 5.52547 11.6549 5.93028 12.0535C6.33509 12.452 6.81514 12.766 7.34248 12.9773C7.86982 13.1885 8.43391 13.2927 9.00192 13.2839C10.1261 13.2663 11.1984 12.8074 11.9872 12.0062C12.776 11.205 13.2181 10.1257 13.2181 9.0014C13.2181 7.87705 12.776 6.79779 11.9872 5.99657C11.1984 5.19536 10.1261 4.73646 9.00192 4.71892V4.71892ZM9.00192 6.22094C9.7392 6.22094 10.4463 6.51383 10.9676 7.03516C11.489 7.5565 11.7819 8.26359 11.7819 9.00088C11.7819 9.73816 11.489 10.4452 10.9676 10.9666C10.4463 11.4879 9.7392 11.7808 9.00192 11.7808C8.26463 11.7808 7.55755 11.4879 7.03621 10.9666C6.51487 10.4452 6.22198 9.73816 6.22198 9.00088C6.22198 8.26359 6.51487 7.5565 7.03621 7.03516C7.55755 6.51383 8.26463 6.22094 9.00192 6.22094V6.22094Z" fill="white"/>
</svg>
