<svg width="16" height="16" viewBox="0 0 16 16" fill="none" xmlns="http://www.w3.org/2000/svg">
<path d="M15.3921 6.55685C15.4883 7.072 15.5406 7.6106 15.5406 8.17266C15.5406 12.569 12.5982 15.6951 8.15419 15.6951C7.14356 15.6954 6.14277 15.4966 5.209 15.11C4.27524 14.7234 3.4268 14.1565 2.71217 13.4419C1.99754 12.7273 1.43073 11.8789 1.04412 10.9451C0.657509 10.0113 0.458677 9.01054 0.458985 7.9999C0.458677 6.98926 0.657509 5.98847 1.04412 5.0547C1.43073 4.12094 1.99754 3.2725 2.71217 2.55788C3.4268 1.84325 4.27524 1.27643 5.209 0.889823C6.14277 0.503212 7.14356 0.30438 8.15419 0.304688C10.232 0.304688 11.9682 1.06921 13.3002 2.31057L11.131 4.47983V4.47436C10.3235 3.70515 9.29863 3.31039 8.15419 3.31039C5.61518 3.31039 3.55145 5.45541 3.55145 7.99521C3.55145 10.5342 5.61518 12.6839 8.15419 12.6839C10.4579 12.6839 12.026 11.3668 12.3481 9.55786H8.15419V6.55685H15.3921Z" fill="white"/>
</svg>
