<svg width="18" height="14" viewBox="0 0 18 14" fill="none" xmlns="http://www.w3.org/2000/svg">
<path d="M5.65425 14C12.447 14 16.1629 8.61244 16.1629 3.94854C16.1629 3.79777 16.1629 3.64486 16.1561 3.4941C16.8796 2.9928 17.5039 2.37217 18 1.66127C17.3242 1.94648 16.6081 2.13445 15.8749 2.21909C16.6472 1.77718 17.2257 1.08189 17.5028 0.262425C16.7771 0.673921 15.9829 0.96279 15.1549 1.11638C14.5982 0.548897 13.8616 0.172956 13.0591 0.0467905C12.2566 -0.0793753 11.4331 0.0512745 10.716 0.418503C9.99895 0.785731 9.42841 1.36904 9.09276 2.07809C8.7571 2.78713 8.67508 3.58233 8.85938 4.34052C7.39096 4.27004 5.95442 3.90489 4.64292 3.26876C3.33143 2.63263 2.17427 1.73972 1.2465 0.647943C0.775508 1.42661 0.63177 2.34767 0.844477 3.22409C1.05718 4.10052 1.61039 4.8666 2.39175 5.36677C1.80623 5.34773 1.23359 5.19723 0.72 4.92741V4.97587C0.72101 5.79157 1.01622 6.58193 1.55573 7.21333C2.09525 7.84474 2.84597 8.27848 3.681 8.44122C3.36405 8.5248 3.03663 8.56647 2.70788 8.56506C2.47611 8.56573 2.2448 8.54518 2.01712 8.50368C2.25313 9.20586 2.71268 9.81979 3.3314 10.2595C3.95012 10.6992 4.69703 10.9426 5.4675 10.9557C4.15862 11.9397 2.54183 12.4734 0.8775 12.4709C0.584236 12.472 0.291176 12.4559 0 12.4224C1.6892 13.4532 3.65096 14.0006 5.65425 14Z" fill="white"/>
</svg>
