<svg width="98" height="37" viewBox="0 0 98 37" fill="none" xmlns="http://www.w3.org/2000/svg">
<g opacity="0.25">
<path d="M97.607 20.108L88.3241 10.311L80.674 2.14687C79.404 0.786178 77.62 0 75.7755 0H57.8143C54.8208 0 52.8554 0.786178 52.0389 2.35853C50.9202 4.47517 52.4623 6.89418 52.6437 7.16632L52.7042 7.28727L63.7409 18.324C64.134 18.7171 64.1945 18.9892 64.1642 19.0799C64.134 19.1706 63.8014 19.4125 63.0757 19.4125H44.3284C43.2398 19.4125 41.6372 18.5054 40.0044 16.9935L35.2268 12.5486H41.6372C41.9396 12.5486 44.4795 12.5184 46.2636 10.7948C47.4126 9.67604 47.9871 8.16416 47.9871 6.28942C47.9871 1.48164 43.9353 0.090713 41.7884 0.0302377H26.1253C24.7344 0.0302377 23.4342 0.574515 22.4666 1.54212C21.4989 2.50972 20.9547 3.84018 20.9547 5.20087L21.0151 17.3564C21.0151 18.6264 19.9568 19.6847 18.6869 19.6847H11.7624C9.10152 19.6847 6.56156 18.5659 4.77754 16.6005C4.65659 16.4795 4.56588 16.3586 4.44493 16.2376C3.2959 14.9676 2.66091 13.3348 2.66091 11.6415V1.84449C2.66091 1.11879 2.05616 0.51404 1.33046 0.51404C0.604752 0.51404 0 1.11879 0 1.84449V11.6415C0 14 0.876891 16.2678 2.44925 18.0216C2.5702 18.1426 2.69115 18.2635 2.78186 18.4147C5.07992 20.9244 8.34558 22.3456 11.7322 22.3456H18.6566C21.4082 22.3456 23.6761 20.108 23.6761 17.3262L23.6156 5.1404C23.6156 4.47517 23.8575 3.84018 24.3413 3.35638C24.8251 2.87257 25.4298 2.63067 26.0951 2.63067H41.6977C41.8186 2.63067 42.756 2.72139 43.6329 3.17495C44.7517 3.7797 45.296 4.77754 45.296 6.19871C45.296 7.34774 44.9936 8.16416 44.3888 8.76891C43.3607 9.79699 41.6674 9.79699 41.6674 9.79699H28.4234L38.1901 18.8985C39.7322 20.3197 42.0303 22.0432 44.3284 22.0432H63.0757C64.7992 22.0432 66.1297 21.3175 66.6437 20.0778C67.1275 18.8985 66.7647 17.5378 65.6459 16.419L54.7906 5.56372C54.5487 5.1404 54.0951 4.14255 54.3975 3.59828C54.5184 3.38661 55.0929 2.66091 57.8143 2.66091H75.7755C76.8943 2.66091 77.9526 3.11447 78.7085 3.96113L84.2722 9.8877H78.5573H78.5271C78.4969 9.8877 78.4666 9.8877 78.4364 9.8877C78.4062 9.8877 78.4061 9.8877 78.3759 9.8877C78.3457 9.8877 78.3154 9.8877 78.3154 9.8877C78.2852 9.8877 78.255 9.8877 78.255 9.91794C78.2247 9.91794 78.2247 9.91794 78.1945 9.91794C78.1643 9.91794 78.134 9.94818 78.134 9.94818C78.1038 9.94818 78.1038 9.94818 78.0735 9.97841C78.0433 9.97841 78.0433 10.0087 78.0131 10.0087C77.9828 10.0087 77.9828 10.0389 77.9526 10.0389C77.9223 10.0389 77.9223 10.0691 77.8921 10.0691C77.8619 10.0691 77.8619 10.0994 77.8316 10.0994C77.8014 10.0994 77.8014 10.1296 77.7712 10.1296C77.7409 10.1296 77.7409 10.1598 77.7107 10.1598L77.6805 10.1901C77.6502 10.2203 77.6502 10.2203 77.62 10.2506L77.5897 10.2808C77.5595 10.311 77.5595 10.311 77.5293 10.3413C77.5293 10.3715 77.499 10.3715 77.499 10.4017C77.499 10.432 77.4688 10.432 77.4688 10.4622C77.4385 10.4925 77.4385 10.5227 77.4083 10.5529C77.4083 10.5529 77.4083 10.5832 77.3781 10.5832L71.9353 20.2592C71.5724 20.8942 71.8144 21.7106 72.4493 22.0735C72.661 22.1944 72.8727 22.2549 73.1146 22.2549C73.5681 22.2549 74.0519 22.013 74.2938 21.5594L79.3133 12.5486H86.782L95.6718 21.9223C95.944 22.1944 96.2766 22.3456 96.6394 22.3456C96.9721 22.3456 97.3047 22.2246 97.5466 21.9827C98.0908 21.4989 98.1211 20.6523 97.607 20.108Z" fill="#060D37"/>
<path d="M4.59626 30.7508C4.59626 32.2022 3.56818 33.3814 2.11678 33.3814H0.121094V28.0898H2.11678C3.56818 28.1201 4.59626 29.2993 4.59626 30.7508ZM4.20317 30.7508C4.20317 29.511 3.35652 28.4829 2.11678 28.4829H0.54442V33.0186H2.11678C3.35652 33.0186 4.20317 32.0207 4.20317 30.7508Z" fill="#060D37"/>
<path d="M18.0815 28.1191V33.4107H17.6582V28.1191H18.0815Z" fill="#060D37"/>
<path d="M36.4371 31.1438C36.4371 32.4138 35.4695 33.4721 33.8971 33.4721C32.2643 33.4721 31.1152 32.2626 31.1152 30.7507C31.1152 29.2388 32.2643 28.0293 33.8669 28.0293C34.8345 28.0293 35.7114 28.5433 36.1347 29.2993L35.7718 29.5109C35.4392 28.8457 34.6833 28.4224 33.8669 28.4224C32.4759 28.4224 31.5083 29.4505 31.5083 30.7507C31.5083 32.0509 32.4759 33.079 33.8971 33.079C35.1671 33.079 35.9533 32.2928 36.044 31.295H33.8064V30.9321H36.4673V31.1438H36.4371Z" fill="#060D37"/>
<path d="M49.8618 28.1191V33.4107H49.4688V28.1191H49.8618Z" fill="#060D37"/>
<path d="M66.3716 28.483H64.7085V33.4117H64.3154V28.5132H62.6523V28.1504H66.3716V28.483Z" fill="#060D37"/>
<path d="M81.6412 32.051H78.9803L78.4663 33.3814H78.043L80.0991 28.0898H80.5224L82.5786 33.3814H82.1553L81.6412 32.051ZM81.5203 31.6881L80.341 28.6039L79.1618 31.6881H81.5203Z" fill="#060D37"/>
<path d="M97.939 33.0186V33.3814H95.0664V28.0898H95.4595V32.9883H97.939V33.0186Z" fill="#060D37"/>
<path d="M98.0003 25.127H0.121094V25.5503H98.0003V25.127Z" fill="#060D37"/>
<path d="M98.0003 36.043H0.121094V36.4663H98.0003V36.043Z" fill="#060D37"/>
</g>
</svg>
