<svg width="46" height="36" viewBox="0 0 46 36" fill="none" xmlns="http://www.w3.org/2000/svg">
<path d="M46 8.67345C45.9892 12.1517 45.2849 15.5928 43.9284 18.7951C42.5719 21.9974 40.5905 24.8964 38.1003 27.3223C32.8222 32.7805 29.2918 35.4746 27.6139 35.4746C25.9361 35.4746 24.9225 35.4747 24.9225 34.8799C26.4163 32.528 28.1756 30.3561 30.1657 28.407C32.9573 25.8961 34.797 22.4973 35.3738 18.7852C35.3606 17.5111 35.0579 16.2567 34.4887 15.1171C33.9194 13.9774 33.0985 12.9824 32.0882 12.2073C29.921 10.3529 28.8024 8.9184 28.8024 7.93872C28.6612 6.94701 28.7531 5.93594 29.0708 4.98604C29.3886 4.03613 29.9234 3.17361 30.6327 2.46697C31.3421 1.76034 32.2064 1.22912 33.1569 0.915622C34.1074 0.602126 35.1178 0.51504 36.1079 0.661174C38.5468 0.71899 40.9014 1.56589 42.8191 3.07528C43.7584 3.68523 44.5377 4.51219 45.0912 5.48639C45.6447 6.46059 45.9564 7.55356 46 8.67345ZM21.5319 8.67345C21.529 12.1529 20.8282 15.5964 19.4713 18.7998C18.1143 22.0032 16.1287 24.9013 13.6322 27.3223C8.35407 32.7805 4.78873 35.4746 2.93614 35.4746C1.08356 35.4746 0.139778 35.4747 0.139778 34.8799C1.66736 32.5232 3.46199 30.3511 5.48785 28.407C8.33123 25.9175 10.2218 22.5161 10.8359 18.7852C10.8226 17.5111 10.5199 16.2567 9.95065 15.1171C9.38138 13.9774 8.5605 12.9824 7.55015 12.2073C5.34802 10.3529 4.26443 8.9184 4.26443 7.93872C4.11194 6.97268 4.18506 5.9844 4.47804 5.05138C4.77102 4.11836 5.27589 3.26593 5.9531 2.56093C6.63032 1.85594 7.46149 1.31752 8.3814 0.987908C9.30131 0.658288 10.285 0.546521 11.2553 0.661172C13.7726 0.661096 16.2234 1.47053 18.2462 2.97032C19.2085 3.5782 20.0016 4.41995 20.5516 5.41709C21.1017 6.41424 21.3908 7.5344 21.3921 8.67345L21.5319 8.67345Z" fill="#060D37"/>
</svg>
