<svg width="120" height="71" viewBox="0 0 120 71" fill="none" xmlns="http://www.w3.org/2000/svg">
<g clip-path="url(#clip0_1131_193)">
<path d="M9.30891 48.3059L6.23092 59.1045H4.50458L1.74577 47.3174C1.54871 46.4258 1.52928 46.4065 1.09076 46.3455L0 46.2071V45.6533H5.4982V46.2071L4.40466 46.3455C3.98834 46.4065 3.98834 46.4065 4.18818 47.3174L6.25035 56.5433L9.2867 45.6533H10.9353L14.1687 56.344L16.2725 47.3174C16.4918 46.4065 16.453 46.4065 16.0561 46.3455L14.9625 46.2071V45.6533H18.8149V46.2071L17.7213 46.3455C17.2856 46.4065 17.2662 46.4258 17.0663 47.3174L14.3075 59.1156H12.5618L9.30891 48.3059Z" fill="white"/>
<path d="M32.6055 59.1156H27.1656V58.5618L28.2592 58.4234C28.6755 58.3625 28.6949 58.3431 28.6949 57.4515V52.6614H23.477V57.4515C23.477 58.3431 23.4965 58.3625 23.9128 58.4234L25.0035 58.5618V59.1156H19.5664V58.5618L20.6572 58.4234C21.0735 58.3625 21.0957 58.3431 21.0957 57.4515V47.3174C21.0957 46.4258 21.0735 46.4065 20.6572 46.3455L19.5664 46.2071V45.6533H25.0035V46.2071L23.9128 46.3455C23.4965 46.4065 23.477 46.4258 23.477 47.3174V51.9691H28.6949V47.3174C28.6949 46.4258 28.6755 46.4065 28.2592 46.3455L27.1656 46.2071V45.6533H32.6055V46.2071L31.512 46.3455C31.0957 46.4065 31.0763 46.4258 31.0763 47.3174V57.4515C31.0763 58.3431 31.0957 58.3625 31.512 58.4234L32.6055 58.5618V59.1156Z" fill="white"/>
<path d="M34.3105 45.6533H39.7505V46.2071L38.6569 46.3455C38.2406 46.4065 38.2212 46.4258 38.2212 47.3174V57.4515C38.2212 58.3431 38.2406 58.3625 38.6569 58.4234L39.7505 58.5618V59.1156H34.3105V58.5618L35.4041 58.4234C35.8204 58.3625 35.8398 58.3431 35.8398 57.4515V47.3174C35.8398 46.4258 35.8204 46.4065 35.4041 46.3455L34.3105 46.2071V45.6533Z" fill="white"/>
<path d="M51.7549 45.6533V49.059H51.1998L50.5642 46.8606C50.4255 46.3455 50.4255 46.3455 49.4929 46.3455H47.489V57.4515C47.489 58.3431 47.5085 58.3625 47.9248 58.4234L49.0183 58.5618V59.1156H43.5756V58.5618L44.6858 58.4234C45.1021 58.3625 45.1216 58.3431 45.1216 57.4515V46.3455H43.1038C42.1712 46.3455 42.1712 46.3455 42.0325 46.8606L41.3969 49.059H40.8418V45.6533H51.7549Z" fill="white"/>
<path d="M62.67 55.7099V59.1156H52.8477V58.5618L53.9384 58.4234C54.3547 58.3625 54.3742 58.3431 54.3742 57.4515V47.3174C54.3742 46.4258 54.3547 46.4065 53.9384 46.3455L52.8477 46.2071V45.6533H62.4702V49.059H61.9151L61.2795 46.8606C61.1407 46.3843 61.1407 46.3455 60.2082 46.3455H56.7555V51.9691H59.0175C59.9501 51.9691 59.9723 51.9304 60.0888 51.4541L60.5274 49.8509H61.0825V54.7795H60.5274L60.0888 53.1764C59.9723 52.7001 59.9501 52.6614 59.0175 52.6614H56.7555V58.4234H60.408C61.3406 58.4234 61.3406 58.3819 61.4794 57.9084L62.1149 55.7099H62.67Z" fill="white"/>
<path d="M76.6196 56.286C76.6196 55.0981 76.0256 54.3477 74.2188 53.8106L72.3731 53.2568C70.5274 52.703 69.495 51.3186 69.495 49.2752C69.495 47.2317 70.866 45.4541 73.8219 45.4541C77.0387 45.4541 78.3876 47.4339 78.0101 49.552L75.7287 49.9701C76.145 47.5141 75.3096 46.1491 73.5638 46.1491C72.2149 46.1491 71.3434 46.9798 71.3434 48.4445C71.3434 49.6711 71.979 50.6236 73.6082 51.1165L75.4539 51.6702C77.4578 52.2628 78.468 53.3509 78.468 55.4304C78.468 57.6455 76.9415 59.3068 73.8857 59.3068C71.6654 59.3068 69.6171 58.4346 69.2812 55.8596L70.6107 55.3861C70.8078 57.9196 72.2371 58.6118 73.8635 58.6118C75.49 58.6118 76.6196 57.8891 76.6196 56.286Z" fill="white"/>
<path d="M83.2637 59.1156H79.4336V58.5618L80.5243 58.4234C80.9601 58.3625 80.9601 58.3431 81.2376 57.4515L85.0289 45.6533H86.7358L90.5465 57.4515C90.8241 58.3431 90.863 58.3625 91.2598 58.4234L92.3506 58.5618V59.1156H86.8718V58.5618L87.982 58.4234C88.3983 58.3625 88.4205 58.3431 88.143 57.4515L87.3881 54.9983H82.7919L82.0176 57.4515C81.74 58.3431 81.7594 58.3625 82.1757 58.4234L83.2693 58.5618L83.2637 59.1156ZM87.1494 54.3061L85.1066 47.7327L83.0223 54.3061H87.1494Z" fill="white"/>
<path d="M93.0918 45.6533H98.5289V46.2071L97.4382 46.3455C97.0219 46.4065 97.0024 46.4258 97.0024 47.3174V57.4515C97.0024 58.3431 97.0219 58.3625 97.4382 58.4234L98.5289 58.5618V59.1156H93.0918V58.5618L94.1826 58.4234C94.5989 58.3625 94.6211 58.3431 94.6211 57.4515V47.3174C94.6211 46.4258 94.5989 46.4065 94.1826 46.3455L93.0918 46.2071V45.6533Z" fill="white"/>
<path d="M109.661 55.7099V59.1156H100.225V58.5618L101.315 58.4234C101.732 58.3625 101.751 58.3431 101.751 57.4515V47.3174C101.751 46.4258 101.732 46.4065 101.315 46.3455L100.225 46.2071V45.6533H105.662V46.2071L104.571 46.3455C104.155 46.4065 104.132 46.4258 104.132 47.3174V58.4234H107.41C108.343 58.4234 108.343 58.3819 108.482 57.9084L109.117 55.7099H109.661Z" fill="white"/>
<path d="M118.155 56.286C118.155 55.0981 117.561 54.3477 115.754 53.8106L113.908 53.2568C112.063 52.703 111.03 51.3186 111.03 49.2752C111.03 47.2317 112.401 45.4541 115.357 45.4541C118.574 45.4541 119.923 47.4339 119.545 49.552L117.264 49.9701C117.68 47.5141 116.847 46.1491 115.099 46.1491C113.75 46.1491 112.879 46.9798 112.879 48.4445C112.879 49.6711 113.514 50.6236 115.143 51.1165L116.989 51.6702C118.993 52.2628 120.003 53.3509 120.003 55.4304C120.003 57.6455 118.477 59.3068 115.421 59.3068C113.201 59.3068 111.152 58.4346 110.816 55.8596L112.146 55.3861C112.343 57.9196 113.772 58.6118 115.401 58.6118C117.031 58.6118 118.155 57.8891 118.155 56.286Z" fill="white"/>
<path d="M8.17578 64.8916H11.5063V65.4758H8.80581V67.1372H11.3315V67.7214H8.80581V69.6042H11.6562V70.1885H8.17578V64.8916Z" fill="white"/>
<path d="M22.6167 70.1858H19.536C19.1646 70.1897 18.7963 70.1181 18.4535 69.9754C18.1322 69.843 17.8399 69.6492 17.5931 69.405C17.3483 69.1572 17.1532 68.8649 17.0186 68.5439C16.7412 67.8553 16.7412 67.0865 17.0186 66.398C17.1517 66.077 17.3469 65.7853 17.5931 65.5396C17.8394 65.294 18.1317 65.0992 18.4535 64.9665C19.1494 64.6896 19.9253 64.6896 20.6212 64.9665C20.9429 65.0992 21.2353 65.294 21.4815 65.5396C21.7278 65.7853 21.923 66.077 22.0561 66.398C22.1964 66.7387 22.2672 67.104 22.2642 67.4723C22.265 67.6977 22.2351 67.9222 22.1754 68.1396C22.116 68.3573 22.0292 68.5666 21.9173 68.7626C21.806 68.9516 21.6697 69.1249 21.5121 69.2776C21.3575 69.4283 21.1757 69.5486 20.9764 69.632V69.6459H22.6167V70.1858ZM17.4849 67.4723C17.4835 67.7565 17.5363 68.0384 17.6403 68.303C17.74 68.5537 17.8869 68.7831 18.0733 68.9786C18.2554 69.1726 18.4755 69.3271 18.72 69.4327C18.978 69.5404 19.2549 69.5959 19.5346 69.5959C19.8143 69.5959 20.0912 69.5404 20.3492 69.4327C20.5956 69.3278 20.8177 69.1732 21.0014 68.9786C21.1877 68.7831 21.3347 68.5537 21.4344 68.303C21.6383 67.7679 21.6383 67.1767 21.4344 66.6416C21.2404 66.1374 20.8543 65.7302 20.3603 65.5092C20.0982 65.3936 19.8141 65.336 19.5276 65.3403C19.2411 65.3353 18.9569 65.393 18.695 65.5092C18.4514 65.6176 18.2317 65.7728 18.0483 65.966C17.8628 66.1611 17.7175 66.3906 17.6209 66.6416C17.5235 66.9075 17.4773 67.1893 17.4849 67.4723Z" fill="white"/>
<path d="M31.8422 68.1672C31.8443 68.4477 31.8079 68.7272 31.7339 68.9979C31.6659 69.2464 31.5489 69.4789 31.3898 69.6818C31.2236 69.8852 31.0115 70.0465 30.7708 70.1525C30.1729 70.3851 29.5092 70.3851 28.9113 70.1525C28.6709 70.0473 28.4596 69.8858 28.2951 69.6818C28.1341 69.4797 28.016 69.247 27.9482 68.9979C27.8742 68.7272 27.8378 68.4477 27.8399 68.1672V64.8916H28.47V68.0758C28.4693 68.2853 28.4916 68.4942 28.5366 68.6988C28.5764 68.888 28.6528 69.0676 28.7614 69.2277C28.8677 69.3844 29.0118 69.512 29.1805 69.5987C29.3887 69.6901 29.6136 69.7373 29.841 69.7373C30.0685 69.7373 30.2934 69.6901 30.5016 69.5987C30.6703 69.512 30.8144 69.3844 30.9207 69.2277C31.0293 69.0676 31.1057 68.888 31.1455 68.6988C31.1905 68.4942 31.2128 68.2853 31.2121 68.0758V64.8916H31.8422V68.1672Z" fill="white"/>
<path d="M37.6348 64.8916H38.2648V70.1857H37.6348V64.8916Z" fill="white"/>
<path d="M47.6374 65.4758H45.8861V70.1829H45.256V65.4758H43.502V64.8916H47.6374V65.4758Z" fill="white"/>
<path d="M54.1215 67.9041L52.1426 64.8916H52.9447L54.4351 67.2839L55.9727 64.8916H56.7276L54.7487 67.9041V70.1857H54.1215V67.9041Z" fill="white"/>
<path d="M72.9141 69.8254C72.6128 69.9935 72.2896 70.1193 71.9538 70.1992C71.6183 70.2787 71.2745 70.3187 70.9297 70.3183C70.5412 70.3229 70.1554 70.2553 69.7917 70.1189C69.4572 69.9915 69.1521 69.7974 68.8952 69.5486C68.6395 69.3005 68.439 69.0014 68.3068 68.6708C68.1634 68.3106 68.0917 67.9259 68.0959 67.5383C68.0912 67.147 68.1668 66.7588 68.3179 66.3976C68.4591 66.0672 68.667 65.7694 68.9285 65.5226C69.1932 65.2823 69.5012 65.0944 69.8361 64.9688C70.1901 64.8322 70.5668 64.7636 70.9463 64.7667C71.2882 64.766 71.6281 64.8183 71.9538 64.9218C72.2814 65.0305 72.5783 65.2156 72.8197 65.4617L72.3479 65.9545C72.1649 65.7592 71.9414 65.6061 71.6929 65.506C71.4421 65.4022 71.1734 65.3486 70.9019 65.3482C70.616 65.347 70.3328 65.4036 70.0693 65.5143C69.8124 65.6183 69.5798 65.7741 69.3859 65.9718C69.192 66.1695 69.041 66.4049 68.9424 66.6634C68.8327 66.9448 68.7781 67.2447 68.7814 67.5467C68.7783 67.8459 68.833 68.143 68.9424 68.4216C69.0431 68.6786 69.194 68.913 69.3865 69.1111C69.5826 69.3115 69.8191 69.4682 70.0804 69.5707C70.3645 69.6838 70.6681 69.7403 70.9741 69.7368C71.2001 69.7346 71.4252 69.7086 71.6457 69.6593C71.8702 69.6105 72.0875 69.5333 72.2924 69.4295V67.8069H71.0712V67.2255H72.9197L72.9141 69.8254Z" fill="white"/>
<path d="M78.7318 64.8916H80.0862C80.3403 64.8924 80.5942 64.9072 80.8467 64.9359C81.083 64.9619 81.313 65.0285 81.5267 65.1325C81.7258 65.2311 81.8938 65.3824 82.0124 65.57C82.1496 65.8066 82.2152 66.0778 82.2011 66.3508C82.209 66.5233 82.1818 66.6956 82.1212 66.8574C82.0606 67.0192 81.9679 67.1671 81.8486 67.2922C81.5818 67.5453 81.2401 67.7056 80.8745 67.7491L82.3815 70.1857H81.5989L80.1584 67.8072H79.3507V70.1857H78.7207L78.7318 64.8916ZM79.3618 67.2258H79.9169C80.0918 67.2258 80.2722 67.2258 80.472 67.2092C80.6479 67.2023 80.8219 67.1696 80.9883 67.1122C81.1389 67.0618 81.2738 66.9731 81.3796 66.8547C81.4894 66.7104 81.5435 66.5316 81.5323 66.3508C81.5393 66.1908 81.4998 66.0321 81.4185 65.8939C81.3466 65.7774 81.2451 65.6818 81.1243 65.617C80.9943 65.5535 80.8544 65.5123 80.7107 65.4952C80.5579 65.4753 80.4041 65.4652 80.25 65.4648H79.3674L79.3618 67.2258Z" fill="white"/>
<path d="M90.2729 70.3296C89.8927 70.3339 89.5154 70.2633 89.1627 70.1219C88.835 69.9885 88.5369 69.7919 88.2856 69.5432C88.0353 69.2908 87.8389 68.9903 87.7083 68.6599C87.4358 67.9466 87.4358 67.1582 87.7083 66.4448C87.8389 66.1145 88.0353 65.814 88.2856 65.5616C88.5369 65.3129 88.835 65.1162 89.1627 64.9829C89.8771 64.7075 90.6686 64.7075 91.383 64.9829C91.7104 65.1169 92.0083 65.3135 92.2601 65.5616C92.5096 65.8141 92.7051 66.1146 92.8346 66.4448C93.1106 67.1575 93.1106 67.9472 92.8346 68.6599C92.7051 68.9902 92.5096 69.2907 92.2601 69.5432C92.0083 69.7912 91.7104 69.9878 91.383 70.1219C91.0302 70.263 90.653 70.3336 90.2729 70.3296ZM90.2729 69.7481C90.5649 69.7509 90.8543 69.6925 91.1221 69.5764C91.3732 69.4664 91.5989 69.3062 91.7855 69.1057C91.9727 68.902 92.1187 68.6641 92.2157 68.4052C92.4228 67.8535 92.4228 67.2457 92.2157 66.694C92.1187 66.4351 91.9727 66.1973 91.7855 65.9935C91.5982 65.7938 91.3726 65.6338 91.1221 65.5228C90.8529 65.4096 90.5637 65.3512 90.2715 65.3512C89.9793 65.3512 89.69 65.4096 89.4208 65.5228C89.1711 65.6352 88.9458 65.7951 88.7575 65.9935C88.5712 66.198 88.4253 66.4356 88.3273 66.694C88.1248 67.2465 88.1248 67.8527 88.3273 68.4052C88.4253 68.6636 88.5712 68.9013 88.7575 69.1057C88.9451 69.305 89.1706 69.465 89.4208 69.5764C89.6904 69.6889 89.9807 69.7436 90.2729 69.737V69.7481Z" fill="white"/>
<path d="M102.532 68.1669C102.534 68.4474 102.497 68.7269 102.423 68.9975C102.355 69.2461 102.238 69.4786 102.079 69.6814C101.913 69.8849 101.701 70.0462 101.46 70.1522C100.862 70.3848 100.199 70.3848 99.6007 70.1522C99.36 70.0462 99.1479 69.8849 98.9818 69.6814C98.8226 69.4786 98.7057 69.2461 98.6376 68.9975C98.5637 68.7269 98.5273 68.4474 98.5294 68.1669V64.8913H99.1594V68.0755C99.1587 68.285 99.181 68.4939 99.226 68.6985C99.2659 68.8877 99.3422 69.0673 99.4508 69.2273C99.5572 69.3841 99.7013 69.5117 99.8699 69.5984C100.078 69.6897 100.303 69.7369 100.53 69.7369C100.758 69.7369 100.983 69.6897 101.191 69.5984C101.36 69.5101 101.505 69.3806 101.61 69.2218C101.719 69.0617 101.795 68.8821 101.835 68.693C101.88 68.4883 101.902 68.2794 101.902 68.07V64.8857H102.532V68.1669Z" fill="white"/>
<path d="M108.324 64.8916H109.909C110.144 64.8911 110.378 64.9152 110.608 64.9636C110.819 65.0058 111.021 65.0865 111.202 65.2017C111.374 65.3154 111.515 65.4694 111.613 65.6503C111.722 65.8643 111.776 66.1024 111.769 66.3425C111.778 66.5921 111.721 66.8396 111.602 67.0596C111.501 67.2421 111.356 67.3964 111.18 67.5082C111.011 67.6181 110.823 67.6969 110.625 67.7408C110.433 67.7836 110.236 67.8059 110.039 67.8072H108.976V70.1857H108.346L108.324 64.8916ZM108.954 67.2258H110.017C110.29 67.2379 110.559 67.1632 110.786 67.0126C110.88 66.9294 110.955 66.8275 111.006 66.7135C111.057 66.5994 111.084 66.4758 111.084 66.3508C111.084 66.2258 111.057 66.1022 111.006 65.9882C110.955 65.8741 110.88 65.7722 110.786 65.689C110.559 65.5373 110.29 65.4625 110.017 65.4758H108.954V67.2258Z" fill="white"/>
<path d="M62.3499 0C72.4664 6.87513 75.2752 22.4473 72.286 29.9537C71.3202 32.4928 71.3701 32.5593 68.2283 32.2353C60.7345 31.4683 53.5738 32.5122 46.6074 34.7882C48.7556 33.6004 69.3052 19.7338 62.3499 0Z" fill="white"/>
<path d="M75.4922 25.3217C77.347 25.6512 79.1795 26.0951 80.9793 26.6507C80.9515 25.8865 80.8849 25.1029 80.7767 24.3083C79.074 23.8143 77.3426 23.425 75.5921 23.1426C75.6004 23.8902 75.5671 24.6184 75.4922 25.3217Z" fill="white"/>
<path d="M75.5564 21.4504C77.2185 21.7062 78.865 22.0538 80.4884 22.4915C80.3247 21.7052 80.1276 20.916 79.8917 20.1214C78.397 19.7578 76.8841 19.4731 75.3594 19.2686C75.4482 20.0088 75.5139 20.7361 75.5564 21.4504Z" fill="white"/>
<path d="M69.3066 4.70703C70.2392 5.81458 71.6824 8.20413 72.5456 9.82946C73.2395 9.85161 73.9333 9.8876 74.6605 9.94298C73.129 7.95743 71.327 6.19508 69.3066 4.70703Z" fill="white"/>
<path d="M75.0795 17.5579C76.445 17.7268 77.841 17.9594 79.2649 18.275C78.9707 17.4646 78.6385 16.6589 78.2685 15.8578C77.0195 15.6363 75.7946 15.4701 74.5938 15.3594C74.7797 16.0931 74.9379 16.8296 75.0795 17.5579Z" fill="white"/>
<path d="M72.834 32.9492C75.1737 33.3811 77.2359 34.126 79.2675 34.7794C79.7278 33.9957 80.0904 33.1589 80.3472 32.2874C78.3411 31.6093 76.2883 31.0772 74.2051 30.6953C73.7832 31.7835 73.2864 32.7471 72.834 32.9492Z" fill="white"/>
<path d="M75.1963 27.4839C75.1269 27.8245 74.9715 28.4281 74.7578 29.112C76.7836 29.4951 78.781 30.015 80.7362 30.6681C80.8678 29.9155 80.9512 29.1553 80.986 28.3921C79.1203 27.793 77.2168 27.3185 75.2879 26.9717C75.2574 27.135 75.2324 27.315 75.1963 27.4839Z" fill="white"/>
<path d="M75.9512 11.734C75.0631 11.638 74.1907 11.5688 73.334 11.5264C73.6134 12.2297 73.866 12.9376 74.0917 13.6501C75.1519 13.7332 76.2316 13.8522 77.3307 14.0184C76.906 13.2431 76.4481 12.4789 75.9512 11.734Z" fill="white"/>
<path fill-rule="evenodd" clip-rule="evenodd" d="M38.4375 40.1491C51.4822 34.2292 69.198 33.8721 81.5654 37.6903C65.9257 29.3671 45.9368 34.8052 38.4375 40.1491Z" fill="white"/>
<path fill-rule="evenodd" clip-rule="evenodd" d="M42.5312 40.149C48.5457 37.6902 62.2926 34.2817 76.3364 38.6067C71.4016 37.3552 54.6878 36.8513 42.5312 40.149Z" fill="#DF2933"/>
</g>
<defs>
<clipPath id="clip0_1131_193">
<rect width="120" height="70.3185" fill="white"/>
</clipPath>
</defs>
</svg>
